Land_normalized_Motion_pl11
version=1
nRows=16
nColumns=43
inDegrees=yes
endheader
time		pelvis_tilt		pelvis_list		pelvis_rotation		pelvis_tx		pelvis_ty		pelvis_tz		hip_flexion_r		hip_adduction_r		hip_rotation_r		knee_angle_r		ankle_angle_r		subtalar_angle_r		mtp_angle_r		hip_flexion_l		hip_adduction_l		hip_rotation_l		knee_angle_l		ankle_angle_l		subtalar_angle_l		mtp_angle_l		lumbar_extension		lumbar_bending		lumbar_rotation		neck_flexion		neck_lateral_bending		neck_rotation		arm_flex_r		arm_add_r		arm_rot_r		elbow_flex_r		pro_sup_r		wrist_flex_r		wrist_dev_r		hand_finger_flex_r		arm_flex_l		arm_add_l		arm_rot_l		elbow_flex_l		pro_sup_l		wrist_flex_l		wrist_dev_l		hand_finger_flex_l		
2.193283		-1.565322		0.107779		89.781099		-0.016175		0.643468		0.478771		60.734185		-6.259492		-2.589827		-88.772183		24.331578		-10.316834		4.303344		61.362082		-1.776499		-4.077321		-91.084783		23.094068		-0.071405		13.478628		-35.110472		-0.215413		1.233820		-10.391674		0.981938		-1.152820		-34.279787		-24.546736		-21.475149		40.174154		127.423422		-15.154788		-11.129598		-16.572355		-47.570905		-17.361941		-29.401242		52.073063		134.837092		-27.383196		-5.873027		-15.705681		
2.196414		-1.746690		0.470458		89.367651		-0.015885		0.635447		0.478047		61.878206		-5.749299		-1.589116		-91.041334		24.086193		-10.228134		4.488555		62.358880		-1.682303		-3.899314		-93.281888		22.682501		-0.304010		13.862434		-36.365883		-0.569151		1.472180		-9.164952		0.969256		-1.210337		-31.991666		-24.809303		-21.447298		40.628639		127.413376		-15.376958		-11.309658		-16.624587		-44.920546		-17.798316		-28.764375		52.254762		135.017376		-27.733826		-5.989180		-15.427799		
2.199545		-1.969496		0.997182		88.923011		-0.015558		0.627951		0.477256		62.808830		-5.211311		-0.558350		-93.211359		23.695751		-10.184034		4.860136		63.066519		-1.589784		-3.812446		-95.331058		22.288693		-0.604666		14.541991		-37.802834		-0.988525		1.728297		-7.915751		0.934043		-1.317823		-29.725845		-25.032042		-21.476920		41.150131		127.426375		-15.665629		-11.621361		-16.681924		-42.251371		-18.275742		-27.998561		52.483367		135.287637		-28.391695		-6.096439		-14.954369		
2.202677		-2.025629		1.481648		88.719374		-0.015610		0.620838		0.476309		63.602599		-4.817030		0.117605		-95.199242		23.456939		-10.150114		5.043759		63.738382		-1.370662		-3.495531		-97.244096		22.192545		-0.712883		14.854300		-39.155509		-1.111626		1.820134		-6.928629		0.922577		-1.334293		-27.279681		-25.299889		-21.465830		41.551876		127.416752		-15.724897		-11.735894		-16.694311		-39.557737		-18.638006		-27.362123		52.752443		135.466120		-28.536703		-6.134399		-14.720318		
2.205808		-2.191307		2.283410		88.368636		-0.015487		0.614533		0.475414		64.041424		-4.326073		0.993800		-97.101338		22.989761		-10.214063		5.435799		63.940863		-1.266041		-3.457010		-99.009636		22.004851		-1.012804		15.517294		-40.919685		-1.433292		2.045764		-5.658920		0.878388		-1.489154		-24.958167		-25.489089		-21.577610		42.119365		127.371166		-16.055903		-12.210249		-16.795742		-36.809282		-19.079023		-26.459556		53.074595		135.920657		-29.527687		-6.256349		-14.472309		
2.208939		-2.246279		2.902698		88.211586		-0.015534		0.608188		0.474524		64.570911		-3.945510		1.657278		-98.903452		22.641660		-10.107077		5.703056		64.312994		-1.067810		-3.236735		-100.674720		21.967809		-1.147014		15.962223		-42.446244		-1.559622		2.130558		-4.575597		0.864621		-1.551834		-22.536809		-25.699009		-21.576108		42.624319		127.238036		-16.235282		-12.560414		-16.847102		-34.093774		-19.449685		-25.645340		53.425839		136.291283		-30.327598		-6.415962		-14.428381		
2.212071		-2.261682		3.426167		88.118918		-0.015601		0.601910		0.473681		65.135220		-3.595988		2.251603		-100.612552		22.332228		-9.952237		5.925245		64.755143		-0.884013		-3.004969		-102.256039		21.992370		-1.258583		16.328687		-43.842044		-1.622940		2.186672		-3.613045		0.869240		-1.604949		-20.055464		-25.879866		-21.556517		43.099517		127.088829		-16.374543		-12.830232		-16.886856		-31.392980		-19.792545		-24.870419		53.847347		136.627233		-31.005848		-6.610999		-14.433674		
2.215202		-2.299615		4.115576		88.008199		-0.015700		0.596233		0.472874		65.470334		-3.306240		2.831522		-102.257363		22.104556		-9.564421		6.443449		64.927319		-0.742072		-2.869967		-103.704215		22.005289		-1.354099		17.077076		-45.445793		-1.723621		2.272929		-2.526031		0.932772		-1.727294		-17.586541		-26.057388		-21.489161		43.570475		126.570335		-16.755514		-13.382148		-16.970210		-28.511040		-20.171286		-23.747521		53.962086		137.202597		-32.825897		-6.975663		-14.807030		
2.218333		-2.212102		4.462652		88.026592		-0.015800		0.590075		0.472186		66.131313		-3.036205		3.251165		-103.821681		21.824219		-9.110091		6.686135		65.522143		-0.578270		-2.518221		-105.138136		22.021349		-1.284905		17.379125		-46.626865		-1.656281		2.272746		-1.619429		1.051317		-1.748620		-15.051095		-26.232340		-21.296061		44.105570		126.304424		-16.905365		-13.602650		-17.015667		-25.826323		-20.452149		-23.007004		54.431284		137.523417		-33.501645		-7.346236		-15.148784		
2.221465		-2.118967		4.877166		88.043179		-0.015883		0.584271		0.471476		66.678954		-2.826608		3.600336		-105.323698		21.634732		-8.532351		7.074231		65.989056		-0.463804		-2.206436		-106.495673		22.019748		-1.152525		17.826215		-47.879216		-1.600723		2.284886		-0.692943		1.222778		-1.792864		-12.502182		-26.393924		-21.034784		44.629917		125.878797		-17.177369		-13.931856		-17.106809		-23.055866		-20.741681		-22.136642		54.742262		137.959382		-34.611903		-7.832237		-15.789380		
2.224596		-1.962192		5.286517		88.110535		-0.015938		0.578644		0.470743		67.171090		-2.671976		3.819140		-106.734671		21.547384		-7.801801		7.653271		66.443926		-0.380182		-1.817671		-107.824216		22.048144		-0.823978		18.403035		-49.103602		-1.475326		2.285720		0.199865		1.427696		-1.810929		-9.917518		-26.564650		-20.579813		45.127792		125.305151		-17.542935		-14.257993		-17.318762		-20.261237		-21.019594		-21.265964		54.990738		138.405162		-35.713228		-8.398852		-16.937176		
2.227727		-1.845276		5.521030		88.158345		-0.015937		0.572849		0.470045		67.857219		-2.521884		4.047166		-108.077310		21.290279		-7.375441		7.871027		67.084409		-0.313144		-1.474074		-109.095685		21.980396		-0.608257		18.618682		-50.089127		-1.401364		2.248139		0.958300		1.658822		-1.831252		-7.310220		-26.679957		-20.191787		45.703346		125.141704		-17.584046		-14.393599		-17.386746		-17.604073		-21.319856		-20.555537		55.564655		138.665680		-35.838126		-8.749246		-17.320218		
2.230859		-1.696095		5.751386		88.207716		-0.015980		0.567169		0.469290		68.504812		-2.409177		4.196444		-109.331946		21.024824		-6.909756		9.304598		67.705882		-0.294777		-1.118435		-110.334475		21.849676		-0.241129		20.013317		-51.061356		-1.305027		2.212652		1.835529		1.934586		-1.825214		-4.712786		-26.871677		-19.425964		46.260513		124.345502		-17.731414		-14.653761		-17.978016		-14.986517		-21.643793		-19.776318		56.149177		138.944472		-35.503873		-9.141184		-19.816970		
2.233990		-1.546327		5.985206		88.244761		-0.016119		0.561600		0.468458		69.112031		-2.326172		4.325935		-110.512812		20.767596		-6.533262		11.811043		68.290411		-0.296839		-0.783142		-111.525125		21.706493		0.143604		22.465407		-51.980750		-1.200777		2.161302		2.561447		2.193057		-1.811615		-2.136570		-27.119830		-18.377170		46.808040		123.071907		-17.899318		-15.006642		-18.950906		-12.366846		-21.954140		-18.975423		56.686325		139.205468		-34.610805		-9.502053		-24.178456		
2.237121		-1.482146		6.150980		88.263637		-0.016251		0.556071		0.467636		69.783640		-2.257810		4.513223		-111.669916		20.622811		-6.124142		11.864346		68.896052		-0.290779		-0.569588		-112.658003		21.722279		0.506162		22.518183		-52.777490		-1.174240		2.077432		3.151396		2.425558		-1.825027		0.472131		-27.204297		-17.820043		47.425802		123.352492		-17.844247		-15.128715		-18.982450		-9.707664		-22.236099		-18.290368		57.241886		139.528569		-34.358301		-9.816569		-24.279710		
2.240253		-1.436136		6.256940		88.266646		-0.016430		0.550504		0.466823		70.493402		-2.182467		4.724857		-112.789101		20.550104		-5.698847		11.956991		69.536532		-0.295311		-0.395468		-113.755152		21.826134		0.934758		22.606845		-53.488963		-1.168827		1.985384		3.800151		2.665877		-1.825639		3.051129		-27.312708		-17.111045		48.057951		123.627482		-17.851552		-15.277602		-19.099157		-7.072625		-22.525372		-17.547922		57.806992		139.871502		-34.123359		-10.092825		-24.369845		
